M48
;Layer_Color=9474304
;FILE_FORMAT=2:5
INCH,LZ
;TYPE=PLATED
T1F00S00C0.02756
T2F00S00C0.03543
T3F00S00C0.06496
T4F00S00C0.13386
%
T01
X0043Y0037
Y0055
X00425Y01165
X00455Y0132
X00495Y01435
X00555Y0162
X00455Y01725
Y0182
X00545
X00845Y01575
X0108
X01175Y01495
X0135
X01325Y01345
X0133Y01235
Y01095
Y00995
Y0089
Y008
X0143Y00795
X01525
X0153Y00885
X01535Y00995
X0154Y0113
Y01255
Y0138
X0156Y0144
Y0157
X01185Y01775
X01215Y01315
X0121Y0112
X0086Y0109
X009Y0123
X00935Y0094
X01005Y00855
X0093Y0077
X01365Y0066
X01505
X01435Y00585
X0022Y0039
X0013Y00405
X00105Y0049
X00125Y0091
X00205Y0096
Y01165
Y0138
X0035Y0132
X00335Y0153
T02
X00845Y01685
X00945
X0108
X0118
X00095Y0075
Y0065
T03
X01335Y01665
X01435Y01765
X01335Y01865
X01535
Y01665
T04
X0015Y0015
X0181
X01805Y018
X0015
M30
